:SAMPLES-PER-SECOND 30
:FULLY-SPECIFIED
:DEGREES
220
root  4.374400086 39.968001 3.325511151 2.950012207 -57.44000244 -5.179992676
lowerback  9.289329529 1.122169971 -2.820770025
upperback  3.21427989 1.147709966 -0.9289699793
thorax  -1.90850997 0.539444983 0.5028160214
lowerneck  -6.044219971 5.232570171 -6.526319981
upperneck  13.07769966 6.930930138 6.115940094
head  4.444769859 3.43234992 3.309920073
lclavicle  0 -9.442270133e-015 7.951389973e-016
lhumerus  -9.855779648 -13.44740009 76.59750366
lradius  2.757915263e-031 -2.205163812e-031 141.3549957
lwrist  -1.412450015e-030 -0 16.73250008
lhand  -1.496451383e-031 -27.76390076 20.11240005
lfingers  90 7.125020027 -90
lthumb  89.89689403 5.08795885 91.16245106
rclavicle  0 -9.442270133e-015 7.951389973e-016
rhumerus  -18.8397007 10.23029995 -80.26830292
rradius  -2.441374082e-031 2.551183378e-031 133.7400055
rwrist  -3.531125038e-031 -1.765562519e-031 -4.95238018
rhand  -7.920061211e-032 -33.2840004 9.303460121
rfingers  -90 -7.125020027 -90
rthumb  -92.93752616 -24.25625642 -97.11982154
rfemur  -5.611420155 11.45240021 13.62320042
rtibia  -0 0 47.25870132
rfoot  -4.570144675e-032 -15.02490044 -3.221029997
rtoes  5.373923086 19.29304026 -105.8922705
lfemur  -26.08429909 4.204639912 -2.343389988
ltibia  -0 0 56.04550171
lfoot  -0 -4.37653017 10.38259983
ltoes  -4.250644065 -19.5611806 -102.515957
221
root  4.375244501 40.17244474 3.249311072 2.398986816 -57.78800201 -4.603027344
lowerback  9.632019997 1.248059988 -3.086639881
upperback  3.230190039 1.272279978 -0.969950974
thorax  -2.088720083 0.6012960076 0.5895770192
lowerneck  -6.209139824 5.146679878 -6.521220207
upperneck  13.52729988 6.795929909 6.226630211
head  4.614059925 3.367680073 3.356549978
lclavicle  0 -9.442270133e-015 7.951389973e-016
lhumerus  -8.351819992 -13.00549984 75.25299835
lradius  2.780932195e-031 -2.176065294e-031 141.9570007
lwrist  -1.412450015e-030 1.765562519e-031 16.88430023
lhand  -1.496451383e-031 -27.76390076 20.11240005
lfingers  90 7.125020027 -90
lthumb  89.89689403 5.08795885 91.16245106
rclavicle  0 -9.442270133e-015 7.951389973e-016
rhumerus  -18.04920006 10.14220047 -79.87190247
rradius  -2.462616234e-031 2.530684753e-031 134.2189941
rwrist  7.062250077e-031 -3.531125038e-031 -5.34073019
rhand  -7.920061211e-032 -33.2840004 9.303460121
rfingers  -90 -7.125020027 -90
rthumb  -92.93752616 -24.25625642 -97.11982154
rfemur  -6.487559795 11.36520004 12.97879982
rtibia  -0 0 47.93479919
rfoot  -4.528076663e-032 -12.89360046 -2.166460037
rtoes  5.373923086 19.29304026 -105.8922705
lfemur  -25.99329948 4.457419872 -3.123790026
ltibia  -0 0 55.55830002
lfoot  -0 -4.623670101 10.16530037
ltoes  -4.250644065 -19.5611806 -102.515957
222
root  4.37706662 40.38088941 3.192844541 1.971984863 -58.06400299 -4.093017578
lowerback  9.938220024 1.357270002 -3.24180007
upperback  3.068739891 1.384840012 -1.004690051
thorax  -2.430939913 0.6631240249 0.6192179918
lowerneck  -5.892859936 5.077539921 -6.42016983
upperneck  13.88259983 6.652959824 6.24695015
head  4.681139946 3.292920113 3.340140104
lclavicle  0 -9.442270133e-015 7.951389973e-016
lhumerus  -7.236410141 -12.69209957 73.93659973
lradius  2.803604392e-031 -2.146775827e-031 142.5579987
lwrist  -7.062250077e-031 1.765562519e-031 17.02479935
lhand  -1.496451383e-031 -27.76390076 20.11240005
lfingers  90 7.125020027 -90
lthumb  89.89689403 5.08795885 91.16245106
rclavicle  0 -9.442270133e-015 7.951389973e-016
rhumerus  -17.5760994 10.07050037 -79.47290039
rradius  -2.48399375e-031 2.50970498e-031 134.7050018
rwrist  0 -1.765562519e-031 -5.518229961
rhand  -7.920061211e-032 -33.2840004 9.303460121
rfingers  -90 -7.125020027 -90
rthumb  -92.93752616 -24.25625642 -97.11982154
rfemur  -7.443369865 11.26169968 12.37110043
rtibia  -0 0 48.59980011
rfoot  -4.493423727e-032 -10.79500008 -1.17753005
rtoes  5.373923086 19.29304026 -105.8922705
lfemur  -26.07220078 4.612500191 -3.930219889
ltibia  -0 0 54.97729874
lfoot  -0 -4.72453022 9.227519989
ltoes  -4.250644065 -19.5611806 -102.515957
223
root  4.387066683 40.55510994 3.132511124 1.517028809 -58.3010025 -3.53302002
lowerback  10.31970024 1.483610034 -3.452399969
upperback  2.850729942 1.509359956 -1.017169952
thorax  -2.876499891 0.7336969972 0.6973689795
lowerneck  -5.27105999 4.987619877 -6.41741991
upperneck  13.92920017 6.489160061 6.214980125
head  4.60228014 3.200469971 3.303499937
lclavicle  0 -9.442270133e-015 7.951389973e-016
lhumerus  -6.28786993 -12.8427 72.81469727
lradius  2.823638241e-031 -2.120356366e-031 143.095993
lwrist  -7.062250077e-031 1.765562519e-031 16.24959946
lhand  -1.496451383e-031 -27.76390076 20.11240005
lfingers  90 7.125020027 -90
lthumb  89.89689403 5.08795885 91.16245106
rclavicle  0 -9.442270133e-015 7.951389973e-016
rhumerus  -17.10569954 9.961600304 -78.91799927
rradius  -2.507406422e-031 2.486313953e-031 135.2420044
rwrist  1.412450015e-030 -0 -5.780869961
rhand  -7.920061211e-032 -33.2840004 9.303460121
rfingers  -90 -7.125020027 -90
rthumb  -92.93752616 -24.25625642 -97.11982154
rfemur  -8.443189621 11.31260014 11.80959988
rtibia  -0 0 49.2804985
rfoot  -5.022559991e-032 -8.633779526 -0.5455189943
rtoes  5.373923086 19.29304026 -105.8922705
lfemur  -26.21240044 4.833360195 -4.763689995
ltibia  -0 0 54.40060043
lfoot  -0 -4.787720203 7.628779888
ltoes  -4.250644065 -19.5611806 -102.515957
224
root  4.392599872 40.70333346 3.071133358 1.140991211 -58.47799683 -3.020019531
lowerback  10.59980011 1.602789998 -3.577100039
upperback  2.774399996 1.635879993 -1.0704
thorax  -3.116719961 0.8003479838 0.6875550151
lowerneck  -5.154170036 4.827990055 -6.479539871
upperneck  14.00769997 6.259190083 6.282040119
head  4.616779804 3.085580111 3.323489904
lclavicle  0 -9.442270133e-015 7.951389973e-016
lhumerus  -5.191500187 -13.65089989 71.72270203
lradius  2.839288589e-031 -2.099353317e-031 143.5209961
lwrist  -7.062250077e-031 1.765562519e-031 13.61989975
lhand  -1.496451383e-031 -27.76390076 20.11240005
lfingers  90 7.125020027 -90
lthumb  89.89689403 5.08795885 91.16245106
rclavicle  0 -9.442270133e-015 7.951389973e-016
rhumerus  -16.16209984 9.59910965 -78.27760315
rradius  -2.535707757e-031 2.457443837e-031 135.897995
rwrist  1.412450015e-030 -3.531125038e-031 -6.2541399
rhand  -7.920061211e-032 -33.2840004 9.303460121
rfingers  -90 -7.125020027 -90
rthumb  -92.93752616 -24.25625642 -97.11982154
rfemur  -9.46078968 11.4666996 11.34710026
rtibia  -0 0 49.99309921
rfoot  -4.722147939e-032 -6.71281004 -0.298684001
rtoes  5.373923086 19.29304026 -105.8922705
lfemur  -26.39119911 5.095359802 -5.583099842
ltibia  -0 0 53.92499924
lfoot  8.859347984e-032 -4.835760117 5.979149818
ltoes  -4.250644065 -19.5611806 -102.515957
225
root  4.387822114 40.85310989 3.02477784 0.8099975586 -58.69999695 -2.554016113
lowerback  10.69950008 1.714290023 -3.709089994
upperback  2.796519995 1.762019992 -1.099740028
thorax  -3.156349897 0.8629369736 0.7118960023
lowerneck  -5.34265995 4.678649902 -6.511529922
upperneck  14.17339993 6.057099819 6.358230114
head  4.708670139 2.98980999 3.354799986
lclavicle  0 -9.442270133e-015 7.951389973e-016
lhumerus  -3.718369961 -12.18470001 70.51899719
lradius  2.852132608e-031 -2.081870222e-031 143.8730011
lwrist  -1.412450015e-030 2.648343779e-031 17.42379951
lhand  -1.496451383e-031 -27.76390076 20.11240005
lfingers  90 7.125020027 -90
lthumb  89.89689403 5.08795885 91.16245106
rclavicle  0 -9.442270133e-015 7.951389973e-016
rhumerus  -15.01420021 9.328240395 -77.51059723
rradius  -2.562532438e-031 2.429459104e-031 136.5269928
rwrist  0 -3.531125038e-031 -6.618020058
rhand  -7.920061211e-032 -33.2840004 9.303460121
rfingers  -90 -7.125020027 -90
rthumb  -92.93752616 -24.25625642 -97.11982154
rfemur  -10.45680046 11.69130039 10.9385004
rtibia  -0 0 50.75159836
rfoot  -4.709937443e-032 -5.303369999 -0.2525250018
rtoes  5.373923086 19.29304026 -105.8922705
lfemur  -26.62039948 5.39880991 -6.433020115
ltibia  -0 0 53.57239914
lfoot  4.429781837e-032 -4.852220058 5.012110233
ltoes  -4.250644065 -19.5611806 -102.515957
226
root  4.383355614 40.9557763 2.976644508 0.5079956055 -58.91500092 -2.130981445
lowerback  10.82909966 1.790009975 -3.897130013
upperback  2.760819912 1.835170031 -1.062819958
thorax  -3.274650097 0.9020389915 0.8414080143
lowerneck  -5.396800041 4.619120121 -6.55656004
upperneck  14.26509953 5.98815012 6.309030056
head  4.751029968 2.949919939 3.348340034
lclavicle  0 -9.442270133e-015 7.951389973e-016
lhumerus  -2.732150078 -11.95289993 69.33139801
lradius  2.866992824e-031 -2.061357849e-031 144.2839966
lwrist  -7.062250077e-031 -8.827812596e-032 17.35449982
lhand  -1.496451383e-031 -27.76390076 20.11240005
lfingers  90 7.125020027 -90
lthumb  89.89689403 5.08795885 91.16245106
rclavicle  0 -9.442270133e-015 7.951389973e-016
rhumerus  -13.97189999 9.34897995 -76.65299988
rradius  -2.587120084e-031 2.403258976e-031 137.1100006
rwrist  1.412450015e-030 -1.765562519e-031 -6.955110073
rhand  -7.920061211e-032 -33.2840004 9.303460121
rfingers  -90 -7.125020027 -90
rthumb  -92.93752616 -24.25625642 -97.11982154
rfemur  -11.44079971 11.99779987 10.61429977
rtibia  -0 0 51.5644989
rfoot  -4.980773581e-032 -4.466879845 -0.4796980023
rtoes  5.373923086 19.29304026 -105.8922705
lfemur  -26.81220055 5.69133997 -7.223269939
ltibia  -0 0 53.36149979
lfoot  4.433668005e-032 -5.411650181 4.604569912
ltoes  -4.250644065 -19.5611806 -102.515957
227
root  4.377666609 41.0097768 2.922022249 0.1699829102 -59.08899689 -1.640991211
lowerback  11.01439953 1.817299962 -3.987030029
upperback  2.677259922 1.844400048 -1.163969994
thorax  -3.463649988 0.9103519917 0.778635025
lowerneck  -5.379399776 4.614059925 -6.447080135
upperneck  14.20090008 5.979899883 6.240190029
head  4.735000134 2.947920084 3.306750059
lclavicle  0 -9.442270133e-015 7.951389973e-016
lhumerus  -1.733839989 -11.74969959 67.77269745
lradius  2.882346686e-031 -2.039833724e-031 144.7129974
lwrist  0 -0 18.33779907
lhand  -1.496451383e-031 -27.76390076 20.11240005
lfingers  90 7.125020027 -90
lthumb  89.89689403 5.08795885 91.16245106
rclavicle  0 -9.442270133e-015 7.951389973e-016
rhumerus  -13.00220013 9.373789787 -76.11650085
rradius  -2.612849691e-031 2.375260097e-031 137.727005
rwrist  7.062250077e-031 -1.765562519e-031 -7.420259953
rhand  -7.920061211e-032 -33.2840004 9.303460121
rfingers  -90 -7.125020027 -90
rthumb  -92.93752616 -24.25625642 -97.11982154
rfemur  -12.41660023 12.4083004 10.30690002
rtibia  -0 0 52.41490173
rfoot  -4.426401036e-032 -4.30603981 -1.123209953
rtoes  5.373923086 19.29304026 -105.8922705
lfemur  -27.04879951 6.01473999 -8.046059608
ltibia  -0 0 53.30059814
lfoot  4.440903939e-032 -6.320990086 4.287970066
ltoes  -4.250644065 -19.5611806 -102.515957
